<svg fill="none" height="78" viewBox="0 0 84 78" width="84" xmlns="http://www.w3.org/2000/svg" xmlns:xlink="http://www.w3.org/1999/xlink"><clipPath id="a"><path d="m0 0h84v78h-84z"/></clipPath><g clip-path="url(#a)"><path d="m0 0h84v78h-84z" fill="#fff"/><g fill="#00adcc"><path d="m40.68 55.864c0 2.752-.224 5.216-.672 7.392-.416 2.176-1.104 4.032-2.064 5.568-.928 1.504-2.16 2.656-3.696 3.456-1.504.8-3.36 1.2-5.568 1.2-2.752 0-5.008-.704-6.768-2.112s-3.072-3.424-3.936-6.048c-.832-2.624-1.248-5.776-1.248-9.456 0-3.712.384-6.88 1.152-9.504s2.032-4.64 3.792-6.048 4.096-2.112 7.008-2.112c2.752 0 5.008.704 6.768 2.112 1.76 1.376 3.072 3.392 3.936 6.048.864 2.624 1.296 5.792 1.296 9.504zm-16.752 0c0 2.592.144 4.768.432 6.528.288 1.728.768 3.04 1.44 3.936.704.864 1.664 1.296 2.88 1.296s2.16-.432 2.832-1.296c.704-.864 1.2-2.16 1.488-3.888.32-1.76.48-3.952.48-6.576s-.16-4.8-.48-6.528c-.288-1.76-.784-3.072-1.488-3.936-.672-.896-1.616-1.344-2.832-1.344s-2.176.448-2.88 1.344c-.672.864-1.152 2.176-1.44 3.936-.288 1.728-.432 3.904-.432 6.528zm43.0688-9.456c0 1.568-.336 2.928-1.008 4.08-.64 1.152-1.52 2.096-2.64 2.832-1.088.736-2.336 1.28-3.744 1.632v.144c2.752.32 4.832 1.152 6.24 2.496 1.44 1.344 2.16 3.152 2.16 5.424 0 1.984-.496 3.776-1.488 5.376-.96 1.568-2.464 2.816-4.512 3.744-2.016.896-4.624 1.344-7.824 1.344-1.888 0-3.648-.16-5.28-.48s-3.168-.784-4.608-1.392v-6.144c1.472.736 3.008 1.296 4.608 1.68 1.632.384 3.136.576 4.512.576 2.592 0 4.4-.448 5.424-1.344 1.056-.896 1.584-2.16 1.584-3.792 0-.96-.24-1.76-.72-2.4-.48-.672-1.328-1.168-2.544-1.488-1.184-.352-2.848-.528-4.992-.528h-2.592v-5.568h2.64c2.112 0 3.712-.192 4.8-.576 1.12-.416 1.872-.96 2.256-1.632.416-.704.624-1.504.624-2.4 0-1.216-.384-2.16-1.152-2.832-.736-.704-1.984-1.056-3.744-1.056-1.088 0-2.08.144-2.976.432-.896.256-1.712.576-2.448.96-.704.384-1.328.752-1.872 1.104l-3.36-4.992c.896-.64 1.888-1.216 2.976-1.728 1.12-.512 2.352-.912 3.696-1.2s2.848-.432 4.512-.432c3.52 0 6.304.72 8.352 2.16 2.08 1.408 3.12 3.408 3.12 6z"/><path d="m12.8658 15.4444c1.3192-.6531 2.643-.6657 3.9715-.0379 1.3213.6134 2.4753 1.9167 3.4621 3.9098.6601 1.3335 1.0238 2.555 1.091 3.6643.0601 1.0951-.1333 2.0388-.5801 2.8313-.4467.7925-1.1146 1.4088-2.0037 1.8489-.5592.2769-1.0822.4466-1.569.509-.4725.0554-.9089.0394-1.3093-.0481-.4003-.0874-.772-.207-1.1148-.3586l-.1721.0852c.1922.244.3772.5095.555.7964.1706.2726.327.5523.4689.8391l2.3426 4.7319-3.2048 1.5865-8.36938-16.9057 2.60253-1.2884 1.20765 1.3035.1506-.0745c.0589-.422.175-.8365.3484-1.2437.1662-.4215.4182-.8141.756-1.1777.3521-.3707.8077-.6944 1.3669-.9713zm.2347 3.0706c-.5592.2769-.9469.6117-1.1631 1.0044s-.2861.8646-.2095 1.4159c.0837.5299.2924 1.1496.6259 1.8593l.1703.3442c.3763.7599.7674 1.3697 1.1735 1.8293.3989.4452.8379.7188 1.3169.8209s1.0125.0076 1.6004-.2835c.4875-.2413.8215-.5763 1.0021-1.0049s.2184-.9473.1135-1.5559-.3455-1.2929-.7217-2.0529c-.5679-1.1471-1.1731-1.9187-1.8155-2.3148-.6352-.4175-1.3328-.4382-2.0928-.062z"/><path d="m31.4179 23.3138c-3.4159.6651-7.0772-1.3116-7.944-5.764-.8623-4.4289 1.7899-7.63483 5.2057-8.2999 3.3923-.66048 7.0536 1.3162 7.9159 5.7451.8669 4.4524-1.7853 7.6583-5.1776 8.3188zm-3.6565-6.5988c.4357 2.238 1.4176 3.5138 2.996 3.2065 1.5548-.3027 1.9863-1.8538 1.5506-4.0917-.4312-2.2145-1.4131-3.4903-2.9679-3.1876-1.5784.3073-2.0099 1.8584-1.5787 4.0728z"/><path d="m43.5997 8.71237-.1517 13.10313-3.5758-.0414.1517-13.10314zm-1.7164-5.15622c.528.00612.9825.13939 1.3635.39982.3812.24443.5679.70262.5601 1.37458-.0076.65595-.2049 1.1097-.5918 1.36123-.387.25154-.8444.37425-1.3724.36814-.5439-.0063-1.0064-.13967-1.3874-.4001-.365-.26024-.5438-.71834-.5362-1.3743.0078-.67195.1971-1.12579.5678-1.36151.387-.25154.8524-.37416 1.3964-.36786z"/><path d="m58.1083 10.1341c1.372.3164 2.3849.944 3.0387 1.8829.6573.9234.7972 2.2035.4198 3.8406l-1.9198 8.3255-3.4846-.8035 1.7203-7.4602c.2121-.9199.2066-1.6436-.0166-2.1713-.2195-.5432-.6879-.8975-1.4051-1.0629-1.0602-.2444-1.8696-.0452-2.4284.5977-.5551.6273-.9891 1.6191-1.3019 2.9755l-1.3859 6.0103-3.4845-.8035 2.9444-12.76892 2.666.61476.0902 1.74486.1871.0432c.3813-.3719.8052-.6436 1.2717-.8151.4701-.1872.9689-.28562 1.4966-.2953.5313-.02528 1.062.0232 1.592.1454z"/><path d="m70.1521 25.9386c.3585.1775.7204.312 1.0857.4036s.7376.1688 1.1171.2317l-1.1819 2.3875c-.4151-.027-.9056-.1181-1.4715-.2733-.5587-.1337-1.1391-.3497-1.7414-.6478-.7026-.3479-1.2767-.7749-1.7224-1.2812-.4313-.4992-.6734-1.11-.7263-1.8325-.0315-.7297.2012-1.5965.6981-2.6002l2.8004-5.6567-1.5271-.7561.6709-1.355 2.2961-.2023 2.1494-2.0156 2.0433 1.0116-1.2352 2.495 3.2908 1.6291-1.1926 2.409-3.2908-1.6292-2.8005 5.6568c-.22.4445-.2578.8453-.1133 1.2025.1517.3429.4354.6173.8512.8231z"/></g></g></svg>