<svg height="256" viewBox="0 0 512 512" width="256" xmlns="http://www.w3.org/2000/svg"><g fill="#4b4b4b"><path d="m123.195 172.967c-15.256 0-27.63 12.373-27.63 27.63 0 15.264 12.374 27.63 27.63 27.63 15.257 0 27.63-12.366 27.63-27.63.001-15.257-12.373-27.63-27.63-27.63z"/><path d="m255.996 172.967c-15.264 0-27.63 12.373-27.63 27.63 0 15.264 12.366 27.63 27.63 27.63 15.257 0 27.63-12.366 27.63-27.63.001-15.257-12.373-27.63-27.63-27.63z"/><path d="m388.797 228.227c15.257 0 27.63-12.366 27.63-27.63 0-15.258-12.373-27.63-27.63-27.63s-27.63 12.373-27.63 27.63c-.001 15.265 12.373 27.63 27.63 27.63z"/><path d="m123.195 282.87c-15.256 0-27.63 12.374-27.63 27.63 0 15.257 12.374 27.63 27.63 27.63 15.257 0 27.63-12.373 27.63-27.63.001-15.256-12.373-27.63-27.63-27.63z"/><path d="m255.996 282.87c-15.264 0-27.63 12.374-27.63 27.63 0 15.257 12.366 27.63 27.63 27.63 15.257 0 27.63-12.373 27.63-27.63.001-15.256-12.373-27.63-27.63-27.63z"/><path d="m388.797 338.131c15.257 0 27.63-12.373 27.63-27.63s-12.373-27.63-27.63-27.63-27.63 12.374-27.63 27.63c-.001 15.257 12.373 27.63 27.63 27.63z"/><path d="m123.195 392.783c-15.256 0-27.63 12.374-27.63 27.63 0 15.257 12.374 27.63 27.63 27.63 15.257 0 27.63-12.374 27.63-27.63.001-15.257-12.373-27.63-27.63-27.63z"/><path d="m255.996 392.783c-15.264 0-27.63 12.374-27.63 27.63 0 15.257 12.366 27.63 27.63 27.63 15.257 0 27.63-12.374 27.63-27.63.001-15.257-12.373-27.63-27.63-27.63z"/><path d="m388.797 448.043c15.257 0 27.63-12.374 27.63-27.63s-12.373-27.63-27.63-27.63-27.63 12.374-27.63 27.63c-.001 15.257 12.373 27.63 27.63 27.63z"/><path d="m118.616 89.297c9.483 0 17.169-7.686 17.169-17.168v-54.96c-.001-9.483-7.687-17.169-17.169-17.169-9.498 0-17.176 7.686-17.176 17.169v54.96c0 9.482 7.678 17.168 17.176 17.168z"/><path d="m255.996 89.297c9.483 0 17.169-7.686 17.169-17.168v-54.96c0-9.483-7.686-17.169-17.169-17.169-9.49 0-17.176 7.686-17.176 17.169v54.96c0 9.482 7.686 17.168 17.176 17.168z"/><path d="m424.284 44.899v27.229c0 17.038-13.862 30.907-30.915 30.907-17.038 0-30.906-13.87-30.906-30.907v-27.229h-75.559v27.229c0 17.038-13.869 30.907-30.906 30.907-17.053 0-30.914-13.87-30.914-30.907v-27.229h-75.559v27.229c0 17.038-13.87 30.907-30.907 30.907-17.052 0-30.914-13.87-30.914-30.907v-27.229h-69.834v467.101h476.26v-467.101zm42.362 210.658v109.904 9.15 109.912h-137.38-9.158-128.222-9.159-137.38v-109.911-9.15-109.905-128.23h137.38 9.159 128.222 9.158 137.38z"/><path d="m393.368 89.297c9.49 0 17.176-7.686 17.176-17.168v-54.96c.001-9.483-7.685-17.169-17.176-17.169-9.482 0-17.168 7.686-17.168 17.169v54.96c0 9.482 7.686 17.168 17.168 17.168z"/></g></svg>