<svg enable-background="new 0 0 841.9 595.3" viewBox="0 0 841.9 595.3" xmlns="http://www.w3.org/2000/svg"><circle cx="484.6" cy="366.3" fill="#00b900" r="61.4"/><circle cx="484.6" cy="210.3" fill="none" r="61.4" stroke="#231815" stroke-miterlimit="10"/><path d="m346.7 427.5h-64.7c-15.3 0-27.8-12.5-27.8-27.8v-64.6c0-15.3 12.5-27.8 27.8-27.8h64.6c15.3 0 27.8 12.5 27.8 27.8v64.6c0 15.3-12.4 27.8-27.7 27.8z" fill="#00b900"/><path d="m346.5 386.1c7-6.8 12.2-14.6 12.2-23.9 0-19.1-19.7-34.6-44-34.6s-44 15.5-44 34.6c0 17.6 15.7 32.1 37.2 34.3 0 0 4.3-.6 3.3 5.1s-1.7 6.2-.5 8.2 20.3-8.7 35.8-23.7z" fill="#fff"/><path d="m291.2 195.3v15.9h7v4.2h-11.9v-20.2h4.9z"/><path d="m306.2 195.3v20.2h-4.9v-20.2z"/><path d="m314 195.3 8.6 12.9v-12.9h4.8v20.2h-5.1l-8.6-12.9v12.9h-4.8v-20.2z"/><path d="m343.4 203v4.1h-8.3v4.1h9.4v4.2h-14.2v-20.2h13.8v4.2h-9v3.4h8.3z"/><path d="m346.5 228.4c7-6.8 12.2-14.6 12.2-23.9 0-19.1-19.7-34.6-44-34.6s-44 15.5-44 34.6c0 17.6 15.7 32.1 37.2 34.3 0 0 4.3-.6 3.3 5.1s-1.7 6.2-.5 8.2 20.3-8.7 35.8-23.7z" fill="none" stroke="#040000" stroke-miterlimit="10"/><path d="m461.2 197.3v15.9h7v4.2h-11.9v-20.2h4.9z"/><path d="m476.2 197.3v20.2h-4.9v-20.2z"/><path d="m484 197.3 8.6 12.9v-12.9h4.8v20.2h-5.1l-8.6-12.9v12.9h-4.8v-20.2z"/><path d="m513.4 205v4.1h-8.3v4.1h9.4v4.2h-14.2v-20.2h13.8v4.2h-9v3.4h8.3z"/><path d="m516.5 230.4c7-6.8 12.2-14.6 12.2-23.9 0-19.1-19.7-34.6-44-34.6s-44 15.5-44 34.6c0 17.6 15.7 32.1 37.2 34.3 0 0 4.3-.6 3.3 5.1s-1.7 6.2-.5 8.2 20.3-8.7 35.8-23.7z" fill="none" stroke="#040000" stroke-miterlimit="10"/><path d="m346.7 268.8h-64.7c-15.3 0-27.8-12.5-27.8-27.8v-64.6c0-15.3 12.5-27.8 27.8-27.8h64.6c15.3 0 27.8 12.5 27.8 27.8v64.6c0 15.3-12.4 27.8-27.7 27.8z" fill="none" stroke="#040000" stroke-miterlimit="10"/><g fill="#00b900"><path d="m291.2 353v15.9h7v4.2h-11.9v-20.1z"/><path d="m306.2 353v20.2h-4.9v-20.2z"/><path d="m314 353 8.6 12.9v-12.9h4.8v20.2h-5.1l-8.6-12.9v12.9h-4.8v-20.2z"/><path d="m343.4 360.7v4.1h-8.3v4.1h9.4v4.2h-14.2v-20.1h13.8v4.2h-9v3.4h8.3z"/></g><path d="m517.4 386.1c7-6.8 12.2-14.6 12.2-23.9 0-19.1-19.7-34.6-44-34.6s-44 15.5-44 34.6c0 17.6 15.7 32.1 37.2 34.3 0 0 4.3-.6 3.3 5.1s-1.7 6.2-.5 8.2 20.3-8.7 35.8-23.7z" fill="#fff"/><g fill="#00b900"><path d="m462.1 353v15.9h7v4.2h-11.9v-20.1z"/><path d="m477.1 353v20.2h-4.9v-20.2z"/><path d="m484.9 353 8.6 12.9v-12.9h4.8v20.2h-5.1l-8.6-12.9v12.9h-4.8v-20.2z"/><path d="m514.3 360.7v4.1h-8.3v4.1h9.4v4.2h-14.2v-20.1h13.8v4.2h-9v3.4h8.3z"/></g></svg>