<svg height="256" viewBox="0 0 512 512" width="256" xmlns="http://www.w3.org/2000/svg"><g fill="#4b4b4b"><path d="m449.891 87.953c-3.766-8.906-10.031-16.438-17.922-21.781-7.891-5.328-17.5-8.469-27.719-8.469h-42.656v-7.359h-61.828c.281-2 .438-4.063.438-6.141-.001-24.375-19.829-44.203-44.204-44.203s-44.203 19.828-44.203 44.203c0 2.078.156 4.141.438 6.141h-61.828v7.359h-42.657c-6.813 0-13.359 1.391-19.281 3.906-8.906 3.766-16.453 10.031-21.797 17.922-5.328 7.906-8.469 17.5-8.469 27.719v355.219c0 6.781 1.391 13.344 3.906 19.281 3.766 8.906 10.031 16.438 17.922 21.781 7.906 5.344 17.5 8.469 27.719 8.469h296.5c6.797 0 13.359-1.375 19.281-3.906 8.922-3.75 16.453-10.031 21.797-17.922 5.328-7.891 8.469-17.5 8.469-27.703v-355.219c0-6.812-1.375-13.359-3.906-19.297zm-193.891-60.156c9.047 0 16.406 7.359 16.406 16.406 0 2.172-.438 4.234-1.203 6.141h-30.391c-.781-1.906-1.219-3.969-1.219-6.141.001-9.047 7.376-16.406 16.407-16.406zm168.328 434.672c0 2.813-.563 5.406-1.578 7.797-1.5 3.578-4.063 6.672-7.281 8.859-3.219 2.156-7 3.406-11.219 3.406h-296.5c-2.813 0-5.422-.563-7.813-1.563-3.594-1.516-6.672-4.094-8.844-7.297-2.156-3.219-3.406-7-3.422-11.203v-355.218c0-2.813.563-5.422 1.578-7.813 1.516-3.594 4.078-6.688 7.281-8.844 3.219-2.156 7-3.406 11.219-3.422h42.656v6.141c0 11.531 9.344 20.875 20.891 20.875h169.422c11.531 0 20.875-9.344 20.875-20.875v-6.141h42.656c2.813 0 5.422.563 7.813 1.578 3.578 1.5 6.672 4.063 8.844 7.281s3.422 7 3.422 11.219z"/><path d="m156.141 170.672h31.625v31.625h-31.625z"/><path d="m225.516 170.672h130.359v31.625h-130.359z"/><path d="m156.141 264.125h31.625v31.625h-31.625z"/><path d="m225.516 264.125h130.359v31.625h-130.359z"/><path d="m156.141 357.594h31.625v31.625h-31.625z"/><path d="m225.516 357.594h130.359v31.625h-130.359z"/></g></svg>